<svg xmlns="http://www.w3.org/2000/svg" width="64" height="64" viewBox="0 0 64 64" fill="none">
  <defs>
    <linearGradient id="sky" x1="32" y1="0" x2="32" y2="40" gradientUnits="userSpaceOnUse">
      <stop offset="0" stop-color="#ffd27a"/>
      <stop offset="1" stop-color="#ff8a3c"/>
    </linearGradient>
    <linearGradient id="sand1" x1="32" y1="26" x2="32" y2="64" gradientUnits="userSpaceOnUse">
      <stop offset="0" stop-color="#ff9d4d"/>
      <stop offset="1" stop-color="#e8761f"/>
    </linearGradient>
    <linearGradient id="sand2" x1="32" y1="34" x2="32" y2="64" gradientUnits="userSpaceOnUse">
      <stop offset="0" stop-color="#e06b1c"/>
      <stop offset="1" stop-color="#b94f12"/>
    </linearGradient>
    <linearGradient id="sand3" x1="32" y1="44" x2="32" y2="64" gradientUnits="userSpaceOnUse">
      <stop offset="0" stop-color="#c2540f"/>
      <stop offset="1" stop-color="#8f3b0a"/>
    </linearGradient>
    <clipPath id="round">
      <rect width="64" height="64" rx="14"/>
    </clipPath>
  </defs>
  <g clip-path="url(#round)">
    <rect width="64" height="64" fill="url(#sky)"/>
    <!-- sun -->
    <circle cx="32" cy="22" r="11" fill="#fff1cc"/>
    <circle cx="32" cy="22" r="15" fill="#fff1cc" opacity="0.3"/>
    <!-- far dune -->
    <path d="M0 40 C 14 30, 24 36, 34 32 C 46 27, 56 33, 64 30 L64 64 L0 64 Z" fill="url(#sand1)"/>
    <!-- mid dune -->
    <path d="M0 50 C 12 41, 26 48, 38 44 C 50 40, 58 46, 64 43 L64 64 L0 64 Z" fill="url(#sand2)"/>
    <!-- near dune -->
    <path d="M0 58 C 16 50, 30 57, 44 53 C 53 50, 59 54, 64 52 L64 64 L0 64 Z" fill="url(#sand3)"/>
  </g>
</svg>
